# xmcd
#
# Track frame offsets:
#	150
#	10901
#	29893
#	44957
#	59629
#	72276
#	86472
#	98670
#	117851
#	130482
#	144083
#	157169
#	170947
#	192648
#	222215
#	236577
#	251443
#	264173
#	278997
#	290921
#
# Disc length: 4063 seconds
#
# Revision: 1
# Processed by: cddbd v1.5.1PL0 Copyright (c) Steve Scherf et al.
# Submitted via: EasyCDDAExtractor 7.0.6.1
#
DISCID=410fdd14
DTITLE=Various Artist - The 20 Best Collection
DYEAR=2002
DGENRE=Blues
TTITLE0=Louis Armstrong with The Mills Bhothers - Marie
TTITLE1=Louis Armstrong With Jack Teagarden - Basin Street Blues
TTITLE2=Louis Armstrong and Friends - A song was born
TTITLE3=Louis Armstrong with Ella Fitzgerald - The Frim Fram Sauce
TTITLE4=Louis Armstrong with The Mills Bhothers - W.P.A.
TTITLE5=Louis Armstrong With Jack Teagarden - Rocking Chair
TTITLE6=Louis Armstrong with The Mills Bhothers - My Walking Stick
TTITLE7=Louis Armstrong With Jack Teagarden - Back o'town blues
TTITLE8=Louis Armstrong with The Mills Bhothers - Darling Nellie Gray
TTITLE9=Louis Armstrong With Jack Teagarden - Fifty-Fifty Blues
TTITLE10=Louis Armstrong with Ella Fitzgerald - You won't be satisfied (until 
TTITLE10=you brake my heart)
TTITLE11=Louis Armstrong With Jack Teagarden - Jack - Armstrong blues
TTITLE12=Louis Armstrong with Velma Middleton - That's my desire
TTITLE13=Louis Armstrong with Billie Holiday - Do You know what it means to mi
TTITLE13=ss New Orleans
TTITLE14=Louis Armstrong with The Mills Bhothers - The song is ended
TTITLE15=Louis Armstrong With Jack Teagarden - Lovely Wheather
TTITLE16=Louis Armstrong with The Mills Brothers - Cherry
TTITLE17=Louis Armstrong with Jack Teagarden - Please Stop Playing Those Blues
TTITLE18=Louis Armstrong with The Mills Bhothers - Boog it
TTITLE19=Louis Armstrong with The Mills Brothers - Carry me back to old Virgin
TTITLE19=ny
EXTD=
EXTT0=
EXTT1=
EXTT2=
EXTT3=
EXTT4=
EXTT5=
EXTT6=
EXTT7=
EXTT8=
EXTT9=
EXTT10=
EXTT11=
EXTT12=
EXTT13=
EXTT14=
EXTT15=
EXTT16=
EXTT17=
EXTT18=
EXTT19=
PLAYORDER=
